<?xml version="1.0" encoding="UTF-8"?>
<svg id="Layer_1" data-name="Layer 1" xmlns="http://www.w3.org/2000/svg" width="100" height="50" viewBox="0 0 100 50">
  <path d="M6.8867,27.717v-14.9425s7.6887-.764,14.5158,8.2088c0,0,.3241.2062.2266-.2906l.0183-7.9344h2.1284v15.1497h-2.0807s.2926-4.4539-4.649-9.0053c0,0-3.3485-3.0885-8.2901-4.1938v13.0041l-1.8693.0041Z" fill="#1b75bb"/>
  <path d="M28.441,15.9931h9.5092s2.5846.7315,2.8284,3.2185v8.6965h-11.1185s-1.0533-.0585-2.0224-.8532c-1.2652-1.0375-1.6648-2.7977-1.0666-4.3206.3803-.9682,1.0686-2.0514,2.2599-2.1573l8.8265-.2438v2.1944h-7.9487s-1.3167.1463-1.5117,1.5605c0,0-.2926,1.1704,1.3167,1.8531h9.3142v-6.3395s-.0488-1.5117-1.6093-1.6093h-8.7778v-1.9994Z" fill="#1b75bb"/>
  <path d="M55.5057,32.2807h2.0481V15.9931h-8.3709c-.8131,0-1.6177.1851-2.3405.5575-1.3911.7166-3.3676,2.1917-3.4306,4.8067,0,0-.2926,3.2185,2.292,5.2179,0,0,.3754.2897,1.0129.6597.7633.4429,1.632.6732,2.5144.6732h4.7628v-2.0644h-5.1691s-2.3651-.3982-3.1941-2.4545c0,0-.7071-2.422.6096-3.8362,0,0,.1814-.3829.7773-.7989.6348-.4432,1.3985-.664,2.1727-.664h6.2178l.0975,14.1907Z" fill="#1b75bb"/>
  <rect x="60.9187" y="15.9931" width="1.8043" height="11.7037" fill="#1b75bb"/>
  <circle cx="61.8208" cy="13.0428" r="1.5849" fill="#1b75bb"/>
  <path d="M88.1581,23.4247s-.5202-1.723-2.0644-3.3323c0,0-2.036-2.8837-2.4922-4.4569-.0202-.0696-.1199-.2173-.1518-.1605l-.0345.1187c-.0125.0282-.0216.0577-.0264.0882-.0536.3407-.5224,2.7195-3.5858,6.4587,0,0-2.8771,3.3323.9753,6.8109,0,0,3.0397,2.4058,6.2257-.5039,0,0,2.0156-1.4142,1.1541-5.0228ZM83.4117,27.4072c1.8043-.4389,1.9506-4.9253,1.9506-4.9253,3.121,5.6568-1.9506,4.9253-1.9506,4.9253Z" fill="#1b75bb"/>
  <path d="M81.3836,38.3931c.4556-.2359,3.8074-1.868,4.2455-2.127-.2442-.2175-.395-.7016-.3667-1.0105.063-.6909.9487-1.6465,1.2612-1.9449.1582.2803.5474,1.187.2397,1.8874-.0805.1829-.2556.4318-.4603.6551.5636-.358,1.1081-.7365,1.6279-1.1364-.319-.146-.6317-.503-.7179-.7642-.2039-.6179.3401-1.675.5472-2.0141.2729.204,1.0288.8952.9832,1.5832-.013.1961-.1119.4887-.2557.7536l.3629-.2991.3982-.3532c.0656-.0594.1341-.1166.1972-.1776l.1901-.1822c.1247-.1226.2579-.24.3777-.3652l.2433-.2494c-.3679-.0824-.7851-.3725-.9381-.6065-.3567-.5452-.0449-1.6156.0886-1.9639.33.1484,1.2739.6771,1.3895,1.3263.0339.1896-.0016.4879-.0923.763.0069-.0076.014-.0152.0209-.0228l.1723-.1909c.0564-.0642.109-.13.1637-.1948.1085-.13.2197-.2591.3261-.3898l.3071-.3969c.0523-.0653.1014-.1317.1495-.1984-.3335-.0558-.7155-.2599-.8747-.4392-.391-.4403-.2374-1.3847-.1581-1.6946.3184.1014,1.2419.481,1.4262,1.0297.0416.124.0535.3075.0339.4971h0l.2703-.408.2506-.4126c.0408-.0689.0853-.1372.1231-.2068l.1136-.2086.0352-.0644c-.3544-.0202-.7961-.2066-.984-.3811-.4384-.4071-.3696-1.3399-.3177-1.6478.3332.08,1.3074.3954,1.5456.921.0531.1173.082.2929.0805.4768l.0705-.1427c.0685-.1402.1246-.2816.1877-.4225l.0922-.2115.0808-.2121c.0244-.0664.0501-.1328.0754-.1993-.3384.0234-.7858-.0837-.9948-.2112-.4915-.2999-.6015-1.1182-.6102-1.3919.3306.0287,1.3124.1836,1.6366.6108.0727.0957.1332.2455.1662.4062.1148-.3788.2088-.7574.2849-1.1348-.3389.0741-.794.0643-1.0354-.0048-.6019-.1723-.9696-.8909-1.0635-1.1369.3512-.0408,1.4158-.0987,1.884.2226.1085.0744.2215.2037.3065.3482l.0074-.0527c.0089-.0701.0219-.1407.0276-.2103l.0167-.2087c.009-.1388.0272-.2793.0286-.4167l.0046-.2528c-.3174.1322-.8412.187-1.117.1462-.6158-.0912-1.0937-.7029-1.226-.9159.3359-.0748,1.3653-.2421,1.8753-.0013.1643.0774.3545.2501.4681.4306-.0005-.0083-.0008-.0166-.0013-.0249l-.0094-.2037c-.0062-.1359-.01-.2724-.0287-.4051l-.045-.401-.0434-.2422c-.3076.1542-.8341.251-1.1206.2348-.6414-.0363-1.2091-.5879-1.372-.7827.3337-.1007,1.3641-.3496,1.9166-.1597.1677.0577.3699.1951.5095.3489l-.0462-.1814c-.0337-.1277-.0626-.2575-.1001-.3838-.0666-.1943-.1248-.3924-.1985-.5839-.2999.1671-.8235.2903-1.1147.2903-.6545,0-1.2783-.5089-1.4603-.6907.3303-.1173,1.3556-.4184,1.9331-.263.1475.0397.3249.1334.4697.2474-.1501-.3425-.3285-.6723-.5285-.9901-.2288.2014-.6936.416-.9736.4781-.6227.1381-1.3812-.1455-1.6133-.2554.2763-.1653,1.1543-.6271,1.7542-.6222.2015.0016.482.0686.6825.1681-.1978-.2952-.4125-.5815-.6496-.8534-.2108.2125-.6748.455-.9584.5326-.6207.1698-1.4152-.066-1.6602-.1609.2665-.1773,1.119-.6786,1.7286-.707.2015-.0094.4861.0389.6971.1228-.0325-.0344-.0653-.0685-.0988-.1024-.2457-.252-.5088-.4921-.7883-.7193-.143.2102-.4917.4825-.7268.596-.5299.2561-1.3405.2162-1.597.186.1969-.1945.8461-.7634,1.4068-.9025.1979-.0491.5035-.063.7308-.0269-.0911-.0705-.1839-.1396-.2783-.2073-.2103-.1508-.4292-.2941-.6559-.4299-.1231.2143-.5015.5144-.7514.6352-.5298.256-1.3405.2162-1.5971.1859.197-.1945.8462-.7634,1.4069-.9025.2087-.0518.5372-.0643.7674-.0206-.2192-.1255-.4454-.2443-.6778-.3563-.3201.0973-.8364.0822-1.0911.0013-.5557-.1763-.8813-.8591-.9631-1.092.3274-.0295,1.3184-.0575,1.7464.2553.2045.1494.4216.5177.3942.7724.1924.087.3808.1786.565.2746-.1105-.1485-.1891-.3308-.2037-.4704-.0519-.4951.4817-1.255.6756-1.4955.1604.1835.5863.7888.454,1.3136-.0606.2404-.3125.6513-.5615.8515.2084.1194.4107.2449.6063.3767.0841.0567.1671.1146.2489.1735-.0881-.2126-.1151-.4956-.0728-.6882.1254-.571.9269-1.3036,1.2055-1.5297.0938.2447.3008,1.0276-.0182,1.5888-.1446.2545-.535.6536-.8522.8244.2808.2163.5466.4452.7966.6861.0276.0264.0549.053.0822.0797-.0308-.2523.0179-.5712.1116-.7781.2788-.6161,1.2806-1.2951,1.6211-1.4992.0288.2898.0273,1.2007-.4436,1.7722-.2069.2512-.6822.6139-1.0431.7594.2356.2556.4516.5247.6524.8027.0204-.2688.1378-.6047.2745-.811.3948-.5961,1.4834-1.1558,1.8477-1.3186-.0353.3028-.2328,1.2416-.7987,1.765-.2469.2284-.7666.5331-1.1369.6346.2056.3114.3907.6347.5486.971.0738-.2386.2061-.4954.3389-.6601.4634-.5745,1.5914-1.0494,1.9654-1.1833-.0758.3066-.3959,1.2495-1.0143,1.7342-.2507.1965-.7376.4392-1.1033.5294.081.195.1459.397.2193.5956.0414.1278.0741.259.1117.3883l.0469.1676c.1268-.2677.3324-.5577.5151-.7314.5959-.5664,1.8405-.9264,2.2479-1.0197-.145.3272-.6784,1.3207-1.4108,1.7654-.3037.1845-.8681.3866-1.2587.4267l.0376.1845.0556.4073c.0223.1349.0294.2737.0389.412l.0143.2076c.0011.0129.002.0259.003.0388.1616-.2808.4295-.593.65-.7666.6603-.5202,1.9111-.7629,2.3167-.8172-.1902.3208-.8572,1.2852-1.6295,1.6669-.3365.1661-.9516.3231-1.3306.3087l.001.1994c.0016.1403-.0138.2838-.0199.4256l-.0123.2134c-.0044.0712-.0159.1434-.0235.215l-.0256.2113c.2294-.2936.5746-.6068.8406-.7712.8002-.4945,2.1534-.591,2.5869-.5947-.2678.3358-1.1721,1.332-2.0584,1.6537-.3808.1382-1.0418.2276-1.4348.1625-.0738.4141-.1693.8304-.2897,1.2478.2563-.256.5926-.5085.8479-.6402.841-.4334,2.1602-.4095,2.579-.374-.3051.3193-1.3164,1.2566-2.2165,1.5056-.3779.1044-1.0075.1369-1.3813.043-.1488.4284-.3166.8569-.5149,1.283.2857-.2211.6342-.4262.8909-.5258.8805-.3419,2.128-.154,2.5187-.0655-.3504.2908-1.4885,1.1299-2.39,1.2747-.3722.0597-.962.0177-1.302-.1197l-.034.0643-.1144.2161c-.038.0721-.0827.1429-.1238.2144l-.253.428-.2757.4229c-.0299.0438-.0601.0876-.0904.1313.3428-.2426.7872-.4683,1.0962-.5623.9511-.2897,2.2034.029,2.5915.1608-.4003.2831-1.6857,1.0884-2.6305,1.1623-.4211.033-1.0857-.0861-1.3913-.2942-.2622.3544-.5412.7035-.8438,1.0424-.1242.1416-.2514.2818-.3814.4206.3934-.1844.8842-.329,1.2009-.3607.9487-.0949,1.9662.5049,2.2705.7252-.4527.2069-1.872.7638-2.7436.6367-.3783-.0551-.9157-.3092-1.1331-.5823-.5839.5842-1.2181,1.1396-1.8921,1.658.4081-.1728.875-.3034,1.1888-.3348,1.0602-.106,2.1973.5644,2.5375.8105-.506.2313-2.0921.8537-3.0662.7116-.4495-.0656-1.1-.3825-1.308-.7089-.5696.4035-1.1635.7809-1.7761,1.1278.4502-.139.9788-.2183,1.3083-.2024,1.0164.0494,1.9257.9118,2.1872,1.2168-.5264.1628-2.1536.5675-3.0322.2748-.417-.1389-.9717-.5841-1.0696-.9591-.4703.246-3.8541,1.8588-4.3412,2.0668-.0122.0051-.0255.0029-.0303-.0055-.005-.009.0015-.0217.0144-.0284Z" fill="#faaf40"/>
  <path d="M86.5082,38.5055c-.4556-.2359-3.8074-1.868-4.2455-2.127.2442-.2175.395-.7016.3667-1.0105-.063-.6909-.9487-1.6465-1.2612-1.9449-.1582.2803-.5474,1.187-.2397,1.8874.0805.1829.2556.4318.4603.6551-.5636-.358-1.1081-.7365-1.6279-1.1364.319-.146.6317-.503.7179-.7642.2039-.6179-.3401-1.675-.5472-2.0141-.2729.204-1.0288.8952-.9832,1.5832.013.1961.1119.4887.2557.7536l-.3629-.2991-.3982-.3532c-.0656-.0594-.1341-.1166-.1972-.1776l-.1901-.1822c-.1247-.1226-.2579-.24-.3777-.3652l-.2433-.2494c.3679-.0824.7851-.3725.9381-.6065.3567-.5452.0449-1.6156-.0886-1.9639-.33.1484-1.2739.6771-1.3895,1.3263-.0339.1896.0016.4879.0923.763-.0069-.0076-.014-.0152-.0209-.0228l-.1723-.1909c-.0564-.0642-.109-.13-.1637-.1948-.1085-.13-.2197-.2591-.3261-.3898l-.3071-.3969c-.0523-.0653-.1014-.1317-.1495-.1984.3335-.0558.7155-.2599.8747-.4392.391-.4403.2374-1.3847.1581-1.6946-.3184.1014-1.2419.481-1.4262,1.0297-.0416.124-.0535.3075-.0339.4971h0l-.2703-.408-.2506-.4126c-.0408-.0689-.0853-.1372-.1231-.2068l-.1136-.2086-.0352-.0644c.3544-.0202.7961-.2066.984-.3811.4384-.4071.3696-1.3399.3177-1.6478-.3332.08-1.3074.3954-1.5456.921-.0531.1173-.082.2929-.0805.4768l-.0705-.1427c-.0685-.1402-.1246-.2816-.1877-.4225l-.0922-.2115-.0808-.2121c-.0244-.0664-.0501-.1328-.0754-.1993.3384.0234.7858-.0837.9948-.2112.4915-.2999.6015-1.1182.6102-1.3919-.3306.0287-1.3124.1836-1.6366.6108-.0727.0957-.1332.2455-.1662.4062-.1148-.3788-.2088-.7574-.2849-1.1348.3389.0741.794.0643,1.0354-.0048.6019-.1723.9696-.8909,1.0635-1.1369-.3512-.0408-1.4158-.0987-1.884.2226-.1085.0744-.2215.2037-.3065.3482l-.0074-.0527c-.0089-.0701-.0219-.1407-.0276-.2103l-.0167-.2087c-.009-.1388-.0272-.2793-.0286-.4167l-.0046-.2528c.3174.1322.8412.187,1.117.1462.6158-.0912,1.0937-.7029,1.226-.9159-.3359-.0748-1.3653-.2421-1.8753-.0013-.1643.0774-.3545.2501-.4681.4306.0005-.0083.0008-.0166.0013-.0249l.0094-.2037c.0062-.1359.01-.2724.0287-.4051l.045-.401.0434-.2422c.3076.1542.8341.251,1.1206.2348.6414-.0363,1.2091-.5879,1.372-.7827-.3337-.1007-1.3641-.3496-1.9166-.1597-.1677.0577-.3699.1951-.5095.3489l.0462-.1814c.0337-.1277.0626-.2575.1001-.3838.0666-.1943.1248-.3924.1985-.5839.2999.1671.8235.2903,1.1147.2903.6545,0,1.2783-.5089,1.4603-.6907-.3303-.1173-1.3556-.4184-1.9331-.263-.1475.0397-.3249.1334-.4697.2474.1501-.3425.3285-.6723.5285-.9901.2288.2014.6936.416.9736.4781.6227.1381,1.3812-.1455,1.6133-.2554-.2763-.1653-1.1543-.6271-1.7542-.6222-.2015.0016-.482.0686-.6825.1681.1978-.2952.4125-.5815.6496-.8534.2108.2125.6748.455.9584.5326.6207.1698,1.4152-.066,1.6602-.1609-.2665-.1773-1.119-.6786-1.7286-.707-.2015-.0094-.4861.0389-.6971.1228.0325-.0344.0653-.0685.0988-.1024.2457-.252.5088-.4921.7883-.7193.143.2102.4917.4825.7268.596.5299.2561,1.3405.2162,1.597.186-.1969-.1945-.8461-.7634-1.4068-.9025-.1979-.0491-.5035-.063-.7308-.0269.0911-.0705.1839-.1396.2783-.2073.2103-.1508.4292-.2941.6559-.4299.1231.2143.5015.5144.7514.6352.5298.256,1.3405.2162,1.5971.1859-.197-.1945-.8462-.7634-1.4069-.9025-.2087-.0518-.5372-.0643-.7674-.0206.2192-.1255.4454-.2443.6778-.3563.3201.0973.8364.0822,1.0911.0013.5557-.1763.8813-.8591.9631-1.092-.3274-.0295-1.3184-.0575-1.7464.2553-.2045.1494-.4216.5177-.3942.7724-.1924.087-.3808.1786-.565.2746.1105-.1485.1891-.3308.2037-.4704.0519-.4951-.4817-1.255-.6756-1.4955-.1604.1835-.5863.7888-.454,1.3136.0606.2404.3125.6513.5615.8515-.2084.1194-.4107.2449-.6063.3767-.0841.0567-.1671.1146-.2489.1735.0881-.2126.1151-.4956.0728-.6882-.1254-.571-.9269-1.3036-1.2055-1.5297-.0938.2447-.3008,1.0276.0182,1.5888.1446.2545.535.6536.8522.8244-.2808.2163-.5466.4452-.7966.6861-.0276.0264-.0549.053-.0822.0797.0308-.2523-.0179-.5712-.1116-.7781-.2788-.6161-1.2806-1.2951-1.6211-1.4992-.0288.2898-.0273,1.2007.4436,1.7722.2069.2512.6822.6139,1.0431.7594-.2356.2556-.4516.5247-.6524.8027-.0204-.2688-.1378-.6047-.2745-.811-.3948-.5961-1.4834-1.1558-1.8477-1.3186.0353.3028.2328,1.2416.7987,1.765.2469.2284.7666.5331,1.1369.6346-.2056.3114-.3907.6347-.5486.971-.0738-.2386-.2061-.4954-.3389-.6601-.4634-.5745-1.5914-1.0494-1.9654-1.1833.0758.3066.3959,1.2495,1.0143,1.7342.2507.1965.7376.4392,1.1033.5294-.081.195-.1459.397-.2193.5956-.0414.1278-.0741.259-.1117.3883l-.0469.1676c-.1268-.2677-.3324-.5577-.5151-.7314-.5959-.5664-1.8405-.9264-2.2479-1.0197.145.3272.6784,1.3207,1.4108,1.7654.3037.1845.8681.3866,1.2587.4267l-.0376.1845-.0556.4073c-.0223.1349-.0294.2737-.0389.412l-.0143.2076c-.0011.0129-.002.0259-.003.0388-.1616-.2808-.4295-.593-.65-.7666-.6603-.5202-1.9111-.7629-2.3167-.8172.1902.3208.8572,1.2852,1.6295,1.6669.3365.1661.9516.3231,1.3306.3087l-.001.1994c-.0016.1403.0138.2838.0199.4256l.0123.2134c.0044.0712.0159.1434.0235.215l.0256.2113c-.2294-.2936-.5746-.6068-.8406-.7712-.8002-.4945-2.1534-.591-2.5869-.5947.2678.3358,1.1721,1.332,2.0584,1.6537.3808.1382,1.0418.2276,1.4348.1625.0738.4141.1693.8304.2897,1.2478-.2563-.256-.5926-.5085-.8479-.6402-.841-.4334-2.1602-.4095-2.579-.374.3051.3193,1.3164,1.2566,2.2165,1.5056.3779.1044,1.0075.1369,1.3813.043.1488.4284.3166.8569.5149,1.283-.2857-.2211-.6342-.4262-.8909-.5258-.8805-.3419-2.128-.154-2.5187-.0655.3504.2908,1.4885,1.1299,2.39,1.2747.3722.0597.962.0177,1.302-.1197l.034.0643.1144.2161c.038.0721.0827.1429.1238.2144l.253.428.2757.4229c.0299.0438.0601.0876.0904.1313-.3428-.2426-.7872-.4683-1.0962-.5623-.9511-.2897-2.2034.029-2.5915.1608.4003.2831,1.6857,1.0884,2.6305,1.1623.4211.033,1.0857-.0861,1.3913-.2942.2622.3544.5412.7035.8438,1.0424.1242.1416.2514.2818.3814.4206-.3934-.1844-.8842-.329-1.2009-.3607-.9487-.0949-1.9662.5049-2.2705.7252.4527.2069,1.872.7638,2.7436.6367.3783-.0551.9157-.3092,1.1331-.5823.5839.5842,1.2181,1.1396,1.8921,1.658-.4081-.1728-.875-.3034-1.1888-.3348-1.0602-.106-2.1973.5644-2.5375.8105.506.2313,2.0921.8537,3.0662.7116.4495-.0656,1.1-.3825,1.308-.7089.5696.4035,1.1635.7809,1.7761,1.1278-.4502-.139-.9788-.2183-1.3083-.2024-1.0164.0494-1.9257.9118-2.1872,1.2168.5264.1628,2.1536.5675,3.0322.2748.417-.1389.9717-.5841,1.0696-.9591.4703.246,3.8541,1.8588,4.3412,2.0668.0122.0051.0255.0029.0303-.0055.005-.009-.0015-.0217-.0144-.0284Z" fill="#faaf40"/>
  <rect x="29.335" y="28.3307" width=".3901" height="3.186" fill="#faaf40"/>
  <rect x="25.8199" y="28.3307" width=".3901" height="3.186" fill="#faaf40"/>
  <polygon points="28.9571 28.3307 28.567 28.3307 28.567 31.1103 28.567 31.5167 28.9571 31.5167 28.9571 28.3307" fill="#faaf40"/>
  <path d="M28.567,31.5167h-1.5402c.1138.9997-.8168,1.081-.8168,1.081v-.3088c.6827.1666.3779-2.5439.3779-2.5439h.4389v1.3289l1.6032.0091v.4338" fill="#faaf40"/>
  <circle cx="22.3128" cy="32.0856" r=".2763" fill="#faaf40"/>
  <circle cx="17.3713" cy="29.0296" r=".2763" fill="#faaf40"/>
  <circle cx="18.1393" cy="29.0296" r=".2763" fill="#faaf40"/>
  <circle cx="23.0748" cy="32.0856" r=".2763" fill="#faaf40"/>
  <circle cx="25.322" cy="32.0856" r=".2763" fill="#faaf40"/>
  <path d="M53.4413,30.8502v2.3732h-18.0432v-2.4383s-2.1091-.191-2.7309.894c0,0-.4673.6949-.3739,1.463H15.2256v-2.4545h-1.6824s-1.4386.3251-1.341,1.5442l-.0047.9916h-3.4332s-.9509-.1382-1.4142-.9428c0,0-.1219.829,1.463,1.6093h3.8525l.1219-1.6011s.4145-.764.7315-.764l.9265-.0731v2.4383h39.7275v-3.0397h-.7315ZM34.7918,33.118l-1.7243-.0002c-.1349-2.0222,1.7864-1.6404,1.7864-1.6404l-.0621,1.6406Z" fill="#1b75bb"/>
  <path d="M25.0884,29.8546l-.0244,1.1216h-2.0481v-.9255c0-.1063-.0485-.2115-.1396-.2663-.0788-.0473-.1555-.0464-.2225-.0245-.1371.0448-.2231.1816-.2231.3258v.8782h-3.7184c.0765-.8887.0259-1.225-.0225-1.3521-.0179-.0471-.0648-.079-.1152-.0808-.2701-.0101-.4955.0065-.6812.0367-.5045.082-.9375.4263-1.1587.8871-.2644.5511-.2534,1.0618-.2534,1.0618h9.046v-1.6621h-.4389ZM18.3059,30.8122l-1.3541.0177s.1909-1.1109,1.3541-.8897v.872Z" fill="#faaf40"/>
  <rect x="3.5451" y="25" width=".6827" height="1.7556" fill="#faaf40"/>
  <g>
    <path d="M2.8511,24.0591c-.0454-.2388-.0684-.5044-.0684-.7974,0-.8413.2842-1.2617.8525-1.2617.3389,0,.5757.1699.709.5107.125-.105.2866-.2222.4849-.3516.1807-.1187.3721-.2266.5747-.3232v.686c-.2861.168-.4575.2705-.5132.3076-.2026.1343-.3467.2397-.4316.3169v.3027h.9448v.6099h-2.5527ZM3.9941,23.2759c0-.2329-.0273-.3979-.0815-.4946-.0557-.0986-.1499-.1479-.2817-.1479-.1235,0-.2139.0498-.271.1499-.0527.0957-.0791.2437-.0791.4438,0,.0757.0034.1494.0107.2222h.7026v-.1733Z" fill="#faaf40"/>
    <path d="M3.5625,21.1953c-.022-.0679-.042-.1587-.0596-.2729-.019-.1372-.0283-.2573-.0283-.3604,0-.3066.0664-.5254.2002-.6567.1191-.1152.3018-.1733.5483-.1733h1.0815c.0615.2715.0923.5449.0923.8208,0,.2637-.0444.4624-.1343.5962-.0967.1494-.2529.2241-.4688.2241-.2026,0-.3525-.082-.4497-.2471-.085-.1436-.1274-.3291-.1274-.5571,0-.1294.0107-.2358.0327-.3188h-.0483c-.1968,0-.2949.124-.2949.3721,0,.1943.0239.3623.0723.5039l-.416.0693ZM4.5864,20.25c-.0132.0522-.0195.1245-.0195.2173,0,.1187.0142.2046.042.2588.0366.0737.0933.1108.1694.1108.144,0,.2158-.1064.2158-.3188,0-.1235-.0044-.2129-.0132-.2681h-.3945Z" fill="#faaf40"/>
    <path d="M3.5557,18.7178c-.0542-.1309-.0811-.2656-.0811-.4043,0-.2744.0854-.4854.2573-.6333.1689-.145.4033-.2173.7026-.2173.2837,0,.5156.0884.6963.2656s.2705.4253.2705.7441c0,.1279-.0107.269-.0327.4233-.0205.1445-.0454.2695-.0752.374h-2.5327l-.0859-.5522h.8809ZM4.9346,18.7178c.0146-.0508.022-.1309.022-.2402,0-.1479-.0488-.2612-.1475-.3398-.0923-.0757-.2227-.1133-.3896-.1133-.3335,0-.5.1309-.5.3931,0,.1216.0239.2217.0728.3003h.9424Z" fill="#faaf40"/>
    <path d="M2.7407,16.5308c.0488-.0522.1113-.0786.1875-.0786s.1382.0264.1851.0786c.0454.0513.0684.1143.0684.1899,0,.0752-.0229.1387-.0684.1895-.0469.0537-.1089.0806-.1851.0806s-.1387-.0269-.1875-.0806c-.0439-.0493-.0659-.1128-.0659-.1895,0-.0757.022-.1387.0659-.1899ZM5.4038,17h-1.9272v-.5615h1.9272v.5615Z" fill="#faaf40"/>
    <path d="M3.5625,15.7983c-.022-.0679-.042-.1587-.0596-.2729-.019-.1372-.0283-.2573-.0283-.3604,0-.3066.0664-.5254.2002-.6567.1191-.1152.3018-.1733.5483-.1733h1.0815c.0615.2715.0923.5449.0923.8208,0,.2637-.0444.4624-.1343.5962-.0967.1494-.2529.2241-.4688.2241-.2026,0-.3525-.082-.4497-.2471-.085-.1436-.1274-.3291-.1274-.5571,0-.1294.0107-.2358.0327-.3188h-.0483c-.1968,0-.2949.124-.2949.3721,0,.1943.0239.3623.0723.5039l-.416.0693ZM4.5864,14.853c-.0132.0522-.0195.1245-.0195.2173,0,.1187.0142.2046.042.2588.0366.0737.0933.1108.1694.1108.144,0,.2158-.1064.2158-.3188,0-.1235-.0044-.2129-.0132-.2681h-.3945Z" fill="#faaf40"/>
  </g>
  <g>
    <path d="M2.7817,29.2207c.3467-.1758.7329-.3525,1.1587-.5312.3979-.165.8848-.3525,1.46-.5625v.6611c-.1055.0361-.1987.0684-.2793.0977-.0854.0322-.1807.0664-.2866.1035v1.0723l.2866.1045c.0732.0273.1665.0605.2793.0996v.6426c-.5298-.1934-1.0166-.3828-1.46-.5693-.4565-.1895-.8428-.3652-1.1587-.5264v-.5918ZM4.3652,29.1377c-.0425.0166-.0981.0371-.167.0625l-.1587.0596-.2842.1133c-.1089.0459-.1841.0781-.2271.0947-.082.0322-.1333.0537-.1538.0625l.9907.3906v-.7832Z" fill="#faaf40"/>
    <path d="M4.6343,27.1035c.1084,0,.1841-.0186.2266-.0537.0547-.0449.0869-.1289.0972-.252l.438.0791c-.0059.3027-.0659.5146-.1802.6348-.0972.1025-.2549.1533-.4736.1533h-2.0571l-.0859-.5615h2.0352Z" fill="#faaf40"/>
  </g>
  <circle cx="53.8193" cy="29.4476" r=".5662" fill="#1b75bb"/>
  <circle cx="34.8539" cy="29.4476" r=".5662" fill="#1b75bb"/>
  <circle cx="33.5386" cy="29.4476" r=".5662" fill="#1b75bb"/>
  <circle cx="11.3165" cy="35.13" r=".5662" fill="#1b75bb"/>
  <circle cx="10.0012" cy="35.13" r=".5662" fill="#1b75bb"/>
</svg>